<?xml version="1.0" encoding="utf-8"?>
<svg viewBox="0 0 40 40" xmlns="http://www.w3.org/2000/svg">
  <g transform="matrix(1, 0, 0, 1, -97.483002, -88.824997)">
    <polygon style="stroke: rgb(255, 255, 255); fill: rgb(0, 0, 42);" points="117.6 90.825 99.483 108.898 117.453 126.825 135.483 108.838"/>
    <path d="M 91.56500134277344 100.78100079345703 Q 90.38900134277344 99.08000079345703 87.09200134277344 98.59700079345703 Q 86.14700134277344 98.45000079345704 85.24400134277344 98.45000079345704 Q 81.90500134277343 98.45000079345704 78.69200134277344 99.64700079345702 Q 76.25600134277343 100.55000079345703 74.99600134277344 101.74700079345703 Q 74.17700134277344 102.48200079345703 74.17700134277344 103.13300079345703 Q 74.17700134277344 103.53200079345703 74.38700134277343 103.80500079345703 Q 74.59700134277344 104.07800079345704 74.49200134277343 104.14100079345702 Q 74.38700134277343 104.20400079345703 74.28200134277344 104.09900079345704 Q 73.75700134277344 103.49000079345703 73.75700134277344 102.56600079345704 Q 73.75700134277344 101.05400079345704 74.95400134277344 100.08800079345703 Q 76.59200134277344 98.78600079345703 79.52150134277343 97.91450079345702 Q 82.45100134277344 97.04300079345703 85.03400134277344 97.04300079345703 Q 87.61700134277343 97.04300079345703 89.27600134277344 97.75700079345702 Q 92.55200134277344 99.14300079345703 92.55200134277344 102.52400079345703 Q 92.55200134277344 105.27500079345702 90.13700134277343 107.79500079345704 Q 87.28100134277344 110.75600079345703 81.92600134277343 111.65900079345703 Q 80.30900134277344 111.93200079345704 78.98600134277343 111.93200079345704 Q 74.38700134277343 111.93200079345704 73.42100134277344 110.04200079345704 Q 73.31600134277343 109.83200079345703 73.31600134277343 109.79000079345703 Q 73.31600134277343 109.62200079345703 73.65200134277343 109.87400079345703 Q 74.91200134277344 110.75600079345703 77.77850134277344 110.75600079345703 Q 80.64500134277344 110.75600079345703 83.63750134277343 109.90550079345704 Q 86.63000134277344 109.05500079345703 88.79300134277344 107.41700079345704 Q 90.41000134277344 106.19900079345703 91.25000134277343 104.96000079345703 Q 92.13200134277344 103.65800079345703 92.13200134277344 102.63950079345703 Q 92.13200134277344 101.62100079345703 91.56500134277344 100.78100079345703 Z M 82.93400134277344 99.14300079345703 L 83.20700134277344 99.14300079345703 Q 83.35400134277344 99.14300079345703 83.35400134277344 99.20600079345704 Q 83.35400134277344 99.35300079345703 83.18600134277344 99.52100079345703 Q 81.40100134277344 101.49500079345702 79.35350134277344 104.46650079345703 Q 77.30600134277344 107.43800079345704 76.73900134277343 108.95000079345704 Q 76.67600134277343 109.11800079345703 76.59200134277344 109.11800079345703 Q 76.40300134277344 109.11800079345703 76.40300134277344 108.90800079345703 Q 76.40300134277344 107.77400079345703 79.46900134277344 103.45850079345703 Q 82.53500134277344 99.14300079345703 82.93400134277344 99.14300079345703 Z" transform="matrix(0.9973000288009644, 0.07343500852584839, -0.07343500852584839, 0.9973000288009644, 42.32292175292969, -2.1827120780944824)" style="fill: rgb(0, 0, 42); stroke: rgb(255, 255, 255); text-transform: capitalize; white-space: pre;"/>
  </g>
</svg>